<svg width="169" height="89" viewBox="0 0 169 89" fill="none" xmlns="http://www.w3.org/2000/svg">
<g filter="url(#filter0_b)">
<path d="M47.2048 88.2706C38.3248 88.2706 30.3248 86.4306 23.2048 82.7506C16.0848 78.9906 10.4848 73.7906 6.40481 67.1506C2.4048 60.4306 0.404805 52.8306 0.404805 44.3506C0.404805 35.8706 2.4048 28.3106 6.40481 21.6706C10.4848 14.9506 16.0848 9.75058 23.2048 6.07058C30.3248 2.31058 38.3248 0.430583 47.2048 0.430583C55.3648 0.430583 62.6448 1.87058 69.0448 4.75059C75.4448 7.63058 80.7248 11.7906 84.8848 17.2306L67.0048 33.1906C61.8048 26.6306 55.6848 23.3506 48.6448 23.3506C42.7248 23.3506 37.9648 25.2706 34.3648 29.1106C30.7648 32.8706 28.9648 37.9506 28.9648 44.3506C28.9648 50.7506 30.7648 55.8706 34.3648 59.7106C37.9648 63.4706 42.7248 65.3506 48.6448 65.3506C55.6848 65.3506 61.8048 62.0706 67.0048 55.5106L84.8848 71.4706C80.7248 76.9106 75.4448 81.0706 69.0448 83.9506C62.6448 86.8306 55.3648 88.2706 47.2048 88.2706Z" fill="white"/>
<path d="M168.902 64.3906V86.3506H101.582V68.9506L131.942 40.8706C134.582 38.3906 136.342 36.2706 137.222 34.5106C138.102 32.7506 138.542 31.0306 138.542 29.3506C138.542 27.2706 137.822 25.6706 136.382 24.5506C135.022 23.3506 133.022 22.7506 130.382 22.7506C127.822 22.7506 125.422 23.4306 123.182 24.7906C120.942 26.1506 119.222 28.0706 118.022 30.5506L96.6617 19.8706C99.8617 13.8706 104.542 9.15058 110.702 5.71058C116.862 2.19058 124.302 0.430583 133.022 0.430583C139.662 0.430583 145.542 1.51058 150.662 3.67058C155.782 5.83058 159.782 8.91058 162.662 12.9106C165.542 16.9106 166.982 21.5106 166.982 26.7106C166.982 31.3506 165.982 35.7106 163.982 39.7906C162.062 43.7906 158.262 48.3506 152.582 53.4706L140.582 64.3906H168.902Z" fill="#F3D68C"/>
</g>
<defs>
<filter id="filter0_b" x="-8.59521" y="-8.56943" width="186.497" height="105.84" filterUnits="userSpaceOnUse" color-interpolation-filters="sRGB">
<feFlood flood-opacity="0" result="BackgroundImageFix"/>
<feGaussianBlur in="BackgroundImage" stdDeviation="4.5"/>
<feComposite in2="SourceAlpha" operator="in" result="effect1_backgroundBlur"/>
<feBlend mode="normal" in="SourceGraphic" in2="effect1_backgroundBlur" result="shape"/>
</filter>
</defs>
</svg>
