<svg width="127" height="23" viewBox="0 0 127 23" fill="none" xmlns="http://www.w3.org/2000/svg">
<path d="M12.2001 22.0608C9.98013 22.0608 7.98013 21.6008 6.20013 20.6808C4.42013 19.7408 3.02013 18.4408 2.00013 16.7808C1.00013 15.1008 0.500127 13.2008 0.500127 11.0808C0.500127 8.96084 1.00013 7.07084 2.00013 5.41084C3.02013 3.73084 4.42013 2.43084 6.20013 1.51084C7.98013 0.57084 9.98013 0.10084 12.2001 0.10084C14.2401 0.10084 16.0601 0.460841 17.6601 1.18084C19.2601 1.90084 20.5801 2.94084 21.6201 4.30084L17.1501 8.29084C15.8501 6.65084 14.3201 5.83084 12.5601 5.83084C11.0801 5.83084 9.89013 6.31084 8.99013 7.27084C8.09013 8.21084 7.64013 9.48084 7.64013 11.0808C7.64013 12.6808 8.09013 13.9608 8.99013 14.9208C9.89013 15.8608 11.0801 16.3308 12.5601 16.3308C14.3201 16.3308 15.8501 15.5108 17.1501 13.8708L21.6201 17.8608C20.5801 19.2208 19.2601 20.2608 17.6601 20.9808C16.0601 21.7008 14.2401 22.0608 12.2001 22.0608ZM37.6814 17.9208H29.7014L28.2914 21.5808H21.0914L30.2714 0.58084H37.2314L46.4114 21.5808H39.0914L37.6814 17.9208ZM35.7314 12.8208L33.6914 7.54084L31.6514 12.8208H35.7314ZM47.5413 0.58084H54.6213V16.0908H64.1013V21.5808H47.5413V0.58084ZM84.5969 16.0908V21.5808H65.3069V17.2308L74.9069 6.07084H65.6069V0.58084H84.1169V4.93084L74.5169 16.0908H84.5969ZM100.963 17.9208H92.9826L91.5726 21.5808H84.3726L93.5526 0.58084H100.513L109.693 21.5808H102.373L100.963 17.9208ZM99.0126 12.8208L96.9726 7.54084L94.9326 12.8208H99.0126Z" fill="black"/>
<path d="M126.783 16.0908V21.5808H109.953V17.2308L117.543 10.2108C118.203 9.59084 118.643 9.06084 118.863 8.62084C119.083 8.18084 119.193 7.75084 119.193 7.33084C119.193 6.81084 119.013 6.41084 118.653 6.13084C118.313 5.83084 117.813 5.68084 117.153 5.68084C116.513 5.68084 115.913 5.85084 115.353 6.19084C114.793 6.53084 114.363 7.01084 114.063 7.63084L108.723 4.96084C109.523 3.46084 110.693 2.28084 112.233 1.42084C113.773 0.54084 115.633 0.10084 117.813 0.10084C119.473 0.10084 120.943 0.370841 122.223 0.910841C123.503 1.45084 124.503 2.22084 125.223 3.22084C125.943 4.22084 126.303 5.37084 126.303 6.67084C126.303 7.83084 126.053 8.92084 125.553 9.94084C125.073 10.9408 124.123 12.0808 122.703 13.3608L119.703 16.0908H126.783Z" fill="#FFEBB8"/>
</svg>
