<svg width="102" height="19" viewBox="0 0 102 19" fill="none" xmlns="http://www.w3.org/2000/svg">
<path d="M10.2829 18.2227C8.50693 18.2227 6.90693 17.8547 5.48293 17.1187C4.05893 16.3667 2.93893 15.3267 2.12293 13.9987C1.32293 12.6547 0.922929 11.1347 0.922929 9.43868C0.922929 7.74268 1.32293 6.23068 2.12293 4.90268C2.93893 3.55868 4.05893 2.51868 5.48293 1.78268C6.90693 1.03068 8.50693 0.654684 10.2829 0.654684C11.9149 0.654684 13.3709 0.942684 14.6509 1.51868C15.9309 2.09468 16.9869 2.92668 17.8189 4.01468L14.2429 7.20668C13.2029 5.89468 11.9789 5.23868 10.5709 5.23868C9.38693 5.23868 8.43493 5.62268 7.71493 6.39068C6.99493 7.14268 6.63493 8.15868 6.63493 9.43868C6.63493 10.7187 6.99493 11.7427 7.71493 12.5107C8.43493 13.2627 9.38693 13.6387 10.5709 13.6387C11.9789 13.6387 13.2029 12.9827 14.2429 11.6707L17.8189 14.8627C16.9869 15.9507 15.9309 16.7827 14.6509 17.3587C13.3709 17.9347 11.9149 18.2227 10.2829 18.2227ZM30.6679 14.9107H24.2839L23.1559 17.8387H17.3959L24.7399 1.03868H30.3079L37.6519 17.8387H31.7959L30.6679 14.9107ZM29.1079 10.8307L27.4759 6.60668L25.8439 10.8307H29.1079ZM38.5559 1.03868H44.2199V13.4467H51.8039V17.8387H38.5559V1.03868ZM68.2004 13.4467V17.8387H52.7684V14.3587L60.4484 5.43068H53.0084V1.03868H67.8164V4.51868L60.1364 13.4467H68.2004ZM81.2929 14.9107H74.9089L73.7809 17.8387H68.0209L75.3649 1.03868H80.9329L88.2769 17.8387H82.4209L81.2929 14.9107ZM79.7329 10.8307L78.1009 6.60668L76.4689 10.8307H79.7329Z" fill="black"/>
<path d="M101.949 13.4467V17.8387H88.4849V14.3587L94.5569 8.74268C95.0849 8.24668 95.4369 7.82268 95.6129 7.47068C95.7889 7.11868 95.8769 6.77468 95.8769 6.43868C95.8769 6.02268 95.7329 5.70268 95.4449 5.47868C95.1729 5.23868 94.7729 5.11868 94.2449 5.11868C93.7329 5.11868 93.2529 5.25468 92.8049 5.52668C92.3569 5.79868 92.0129 6.18268 91.7729 6.67868L87.5009 4.54268C88.1409 3.34268 89.0769 2.39868 90.3089 1.71068C91.5409 1.00668 93.0289 0.654684 94.7729 0.654684C96.1009 0.654684 97.2769 0.870684 98.3009 1.30268C99.3249 1.73468 100.125 2.35068 100.701 3.15068C101.277 3.95068 101.565 4.87068 101.565 5.91068C101.565 6.83868 101.365 7.71068 100.965 8.52668C100.581 9.32668 99.8209 10.2387 98.6849 11.2627L96.2849 13.4467H101.949Z" fill="#F3D68C"/>
</svg>
